<?xml version="1.0" encoding="UTF-8" standalone="no"?>
<!DOCTYPE svg PUBLIC "-//W3C//DTD SVG 1.1//EN" "http://www.w3.org/Graphics/SVG/1.1/DTD/svg11.dtd">
<svg xmlns="http://www.w3.org/2000/svg" version="1.1" viewBox="0 0 225 225">
<g stroke-width="2.00" fill="none" stroke-linecap="butt">
<path stroke="#5f471b" vector-effect="non-scaling-stroke" d="
  M 144.22 134.14
  L 174.81 103.81
  Q 175.25 103.37 175.25 103.99
  L 175.19 158.73
  A 0.52 0.51 90.0 0 0 175.70 159.25
  L 190.06 159.25
  A 0.69 0.69 45.0 0 0 190.75 158.56
  L 190.75 67.24
  Q 190.75 65.60 189.59 66.77
  L 144.29 112.34
  A 0.51 0.50 45.0 0 1 143.58 112.33
  L 97.74 66.35
  A 2.10 2.01 66.4 0 0 96.30 65.75
  L 36.75 66.01
  Q 35.64 66.01 36.41 66.81
  L 49.90 80.89
  A 1.19 1.14 -20.9 0 0 50.75 81.25
  L 91.05 81.25
  A 2.06 2.03 -21.8 0 1 92.52 81.87
  L 143.49 134.13
  A 0.52 0.52 -44.2 0 0 144.22 134.14"
/>
<path stroke="#5f471b" vector-effect="non-scaling-stroke" d="
  M 107.34 119.02
  L 94.14 105.02
  A 1.72 1.64 -20.7 0 0 92.91 104.50
  L 50.82 104.81
  A 1.23 1.15 -66.4 0 0 49.97 105.18
  L 36.03 119.72
  Q 35.51 120.26 36.25 120.25
  L 107.13 119.49
  Q 107.77 119.48 107.34 119.02"
/>
<path stroke="#5f471b" vector-effect="non-scaling-stroke" d="
  M 126.06 143.43
  L 50.50 143.00
  A 1.29 1.28 -66.1 0 0 49.63 143.34
  Q 41.98 150.44 35.14 158.32
  Q 34.81 158.69 35.31 158.69
  L 141.64 159.06
  Q 142.19 159.06 141.80 158.67
  L 126.92 143.79
  A 1.27 1.27 67.5 0 0 126.06 143.43"
/>
</g>
<path fill="#000000" d="
  M 0.00 0.00
  L 225.00 0.00
  L 225.00 225.00
  L 0.00 225.00
  L 0.00 0.00
  Z
  M 144.22 134.14
  L 174.81 103.81
  Q 175.25 103.37 175.25 103.99
  L 175.19 158.73
  A 0.52 0.51 90.0 0 0 175.70 159.25
  L 190.06 159.25
  A 0.69 0.69 45.0 0 0 190.75 158.56
  L 190.75 67.24
  Q 190.75 65.60 189.59 66.77
  L 144.29 112.34
  A 0.51 0.50 45.0 0 1 143.58 112.33
  L 97.74 66.35
  A 2.10 2.01 66.4 0 0 96.30 65.75
  L 36.75 66.01
  Q 35.64 66.01 36.41 66.81
  L 49.90 80.89
  A 1.19 1.14 -20.9 0 0 50.75 81.25
  L 91.05 81.25
  A 2.06 2.03 -21.8 0 1 92.52 81.87
  L 143.49 134.13
  A 0.52 0.52 -44.2 0 0 144.22 134.14
  Z
  M 107.34 119.02
  L 94.14 105.02
  A 1.72 1.64 -20.7 0 0 92.91 104.50
  L 50.82 104.81
  A 1.23 1.15 -66.4 0 0 49.97 105.18
  L 36.03 119.72
  Q 35.51 120.26 36.25 120.25
  L 107.13 119.49
  Q 107.77 119.48 107.34 119.02
  Z
  M 126.06 143.43
  L 50.50 143.00
  A 1.29 1.28 -66.1 0 0 49.63 143.34
  Q 41.98 150.44 35.14 158.32
  Q 34.81 158.69 35.31 158.69
  L 141.64 159.06
  Q 142.19 159.06 141.80 158.67
  L 126.92 143.79
  A 1.27 1.27 67.5 0 0 126.06 143.43
  Z"
/>
<path fill="#bd8e36" d="
  M 144.22 134.14
  A 0.52 0.52 -45.1 0 1 143.49 134.13
  L 92.52 81.87
  A 2.06 2.03 -21.8 0 0 91.05 81.25
  L 50.75 81.25
  A 1.19 1.14 -20.9 0 1 49.90 80.89
  L 36.41 66.81
  Q 35.64 66.01 36.75 66.01
  L 96.30 65.75
  A 2.10 2.01 66.4 0 1 97.74 66.35
  L 143.58 112.33
  A 0.51 0.50 45.0 0 0 144.29 112.34
  L 189.59 66.77
  Q 190.75 65.60 190.75 67.24
  L 190.75 158.56
  A 0.69 0.69 -45.0 0 1 190.06 159.25
  L 175.70 159.25
  A 0.52 0.51 -90.0 0 1 175.19 158.73
  L 175.25 103.99
  Q 175.25 103.37 174.81 103.81
  L 144.22 134.14
  Z"
/>
<path fill="#bd8e36" d="
  M 107.34 119.02
  Q 107.77 119.48 107.13 119.49
  L 36.25 120.25
  Q 35.51 120.26 36.03 119.72
  L 49.97 105.18
  A 1.23 1.15 -66.4 0 1 50.82 104.81
  L 92.91 104.50
  A 1.72 1.64 -20.7 0 1 94.14 105.02
  L 107.34 119.02
  Z"
/>
<path fill="#bd8e36" d="
  M 126.92 143.79
  L 141.80 158.67
  Q 142.19 159.06 141.64 159.06
  L 35.31 158.69
  Q 34.81 158.69 35.14 158.32
  Q 41.98 150.44 49.63 143.34
  A 1.29 1.28 -66.1 0 1 50.50 143.00
  L 126.06 143.43
  A 1.27 1.27 67.5 0 1 126.92 143.79
  Z"
/>
</svg>
